# xmcd
#
# Track frame offsets:
#	150
#	17578
#	39419
#	55877
#
# Disc length: 970 seconds
#
# Revision: 0
# Processed by: cddbd v1.5.2PL0 Copyright (c) Steve Scherf et al.
# Submitted via: audiograbber 1.83.01
#
DISCID=2703c804
DTITLE=The Homecoming - The Summer CD Sampler
DYEAR=2008
DGENRE=Slow Rock
TTITLE0=Basics To A Night Well Spent
TTITLE1=Don't Forget To Pack Your Bags
TTITLE2=Waiting
TTITLE3=According To Plan
EXTD=
EXTT0=
EXTT1=
EXTT2=
EXTT3=
PLAYORDER=
